<?xml version="1.0" encoding="UTF-8" standalone="no"?>
<!-- Created with Inkscape (http://www.inkscape.org/) -->

<svg
   width="110.69035mm"
   height="85.691528mm"
   viewBox="0 0 110.69035 85.691528"
   version="1.1"
   id="svg1"
   xml:space="preserve"
   inkscape:version="1.4.2 (f4327f4, 2025-05-13)"
   sodipodi:docname="ReservaLabIcon.svg"
   xmlns:inkscape="http://www.inkscape.org/namespaces/inkscape"
   xmlns:sodipodi="http://sodipodi.sourceforge.net/DTD/sodipodi-0.dtd"
   xmlns="http://www.w3.org/2000/svg"
   xmlns:svg="http://www.w3.org/2000/svg"
   xmlns:rdf="http://www.w3.org/1999/02/22-rdf-syntax-ns#"
   xmlns:cc="http://creativecommons.org/ns#"
   xmlns:dc="http://purl.org/dc/elements/1.1/"><title
     id="title2">Ícone do ReservaLab</title><sodipodi:namedview
     id="namedview1"
     pagecolor="#ffffff"
     bordercolor="#000000"
     borderopacity="0.25"
     inkscape:showpageshadow="2"
     inkscape:pageopacity="0.0"
     inkscape:pagecheckerboard="0"
     inkscape:deskcolor="#d1d1d1"
     inkscape:document-units="mm"
     inkscape:zoom="0.36302259"
     inkscape:cx="-300.2568"
     inkscape:cy="263.06903"
     inkscape:window-width="1920"
     inkscape:window-height="1017"
     inkscape:window-x="-8"
     inkscape:window-y="-8"
     inkscape:window-maximized="1"
     inkscape:current-layer="layer6" /><defs
     id="defs1" /><g
     inkscape:groupmode="layer"
     id="layer6"
     inkscape:label="Quadrado verde"
     style="display:inline"
     transform="translate(-9.1161128,-6.1534142)"><rect
       style="fill:#15dc7f;stroke-width:1.5875"
       id="rect1"
       width="74.887733"
       height="75.434357"
       x="30.139509"
       y="16.410583" /></g><g
     inkscape:groupmode="layer"
     id="layer7"
     inkscape:label="Traçado branco"
     style="display:inline"
     transform="translate(-9.1161128,-6.1534142)"><rect
       style="fill:none;stroke:#ffffff;stroke-width:1.186;stroke-linecap:butt;stroke-dasharray:none;stroke-opacity:1;paint-order:normal"
       id="rect2"
       width="74.719742"
       height="74.719742"
       x="18.653254"
       y="6.7464142" /></g><g
     inkscape:groupmode="layer"
     id="layer5"
     inkscape:label="chaves"
     style="display:inline"
     transform="translate(-9.1161128,-6.1534142)"><g
       id="g1"
       transform="matrix(0.12217398,-0.19680305,0.19734972,0.12368102,-8.7770401,63.438077)"
       style="display:inline"><path
         d="m 236.392,383.2 a 5.579,5.579 0 0 0 5.168,-7.664 l -39.123,-96.932 a 5.5753447,5.5753447 0 0 0 -10.34,4.174 l 39.124,96.931 a 5.575,5.575 0 0 0 5.171,3.491 z"
         fill="#34a853"
         class="color000000 svgShape"
         id="path1"
         style="display:inline;fill:#07733d;fill-opacity:1" /><path
         d="m 212.442,419.839 a 16.981,16.981 0 0 0 0.433,13.076 l 5.05,11.134 a 17.095,17.095 0 0 0 21.466,8.984 l 5.867,13 a 25.477,25.477 0 0 0 23.2,14.9 25,25 0 0 0 9.912,-2.043 25.31,25.31 0 0 0 13.712,-32.166 l -62.34,-166.409 a 5.576,5.576 0 1 0 -10.443,3.912 l 62.343,166.408 a 14.189,14.189 0 0 1 -26.22,10.813 L 247.276,443.4 a 5.577,5.577 0 0 0 -7.386,-2.783 l -3.943,1.788 a 5.943,5.943 0 0 1 -7.867,-2.957 l -5.05,-11.134 a 5.941,5.941 0 0 1 2.961,-7.866 l 4,-1.818 a 5.577,5.577 0 0 0 2.779,-7.371 l -12.247,-27.143 a 5.574,5.574 0 0 0 -7.386,-2.783 l -4.058,1.84 a 5.951,5.951 0 0 1 -7.867,-2.959 l -5.05,-11.134 a 5.943,5.943 0 0 1 2.958,-7.866 l 4.119,-1.868 a 5.574,5.574 0 0 0 2.781,-7.371 l -10.156,-22.508 a 5.58,5.58 0 0 0 -7.13,-2.893 l -5.792,2.287 a 5.947,5.947 0 0 1 -7.711,-3.347 l -4.488,-11.37 a 5.943,5.943 0 0 1 3.347,-7.71 l 4.22,-1.666 a 5.579,5.579 0 0 0 3.035,-7.48 l -5.375,-11.914 a 5.555,5.555 0 0 0 -5.7,-3.246 86.726,86.726 0 0 1 -67.37,-150.846 5.575,5.575 0 1 0 -7.432,-8.311 97.843,97.843 0 0 0 71.975,170.6 l 1.357,3.008 a 17.1,17.1 0 0 0 -8.425,21.649 l 4.488,11.372 a 17.116,17.116 0 0 0 22.177,9.625 l 0.85,-0.336 5.694,12.62 a 17.1,17.1 0 0 0 -7.572,22.169 l 5.051,11.133 a 17.093,17.093 0 0 0 21.582,8.942 l 7.692,17.048 a 16.965,16.965 0 0 0 -7.895,9.038 z"
         fill="#34a853"
         class="color000000 svgShape"
         id="path2"
         style="display:inline;fill:#07733d;fill-opacity:1" /><path
         d="m 309.973,201.575 a 5.577,5.577 0 0 0 1.342,7.77 l 139.223,98.194 a 14.19,14.19 0 0 1 -15.582,23.7 l -16.9,-10.332 a 5.577,5.577 0 0 0 -7.67,1.856 l -2.254,3.7 a 5.943,5.943 0 0 1 -8.166,1.984 l -10.442,-6.359 a 5.943,5.943 0 0 1 -1.984,-8.166 l 2.287,-3.757 a 5.576,5.576 0 0 0 -1.854,-7.656 l -25.4,-15.536 a 5.576,5.576 0 0 0 -7.67,1.856 l -2.32,3.806 a 5.943,5.943 0 0 1 -8.166,1.986 l -10.441,-6.358 a 5.952,5.952 0 0 1 -1.986,-8.169 l 2.352,-3.863 a 5.575,5.575 0 0 0 -1.852,-7.656 l -21.065,-12.883 a 5.576,5.576 0 0 0 -7.521,1.623 l -3.5,5.151 a 5.949,5.949 0 0 1 -8.256,1.576 l -10.111,-6.871 a 5.949,5.949 0 0 1 -1.575,-8.255 l 2.55,-3.753 a 5.575,5.575 0 0 0 -1.7,-7.889 l -11.15,-6.819 a 5.575,5.575 0 0 0 -6.542,0.527 86.694,86.694 0 1 1 -102.911,-138.988 5.575,5.575 0 1 0 -5.984,-9.408 97.848,97.848 0 1 0 113,159.455 l 2.815,1.721 a 17.1,17.1 0 0 0 5.227,22.634 l 10.111,6.872 a 17.117,17.117 0 0 0 23.747,-4.532 l 0.514,-0.757 11.81,7.224 a 17.117,17.117 0 0 0 6.225,22.585 l 10.442,6.359 a 17.1,17.1 0 0 0 22.872,-4.764 l 15.954,9.759 a 17.095,17.095 0 0 0 6.284,22.472 l 10.441,6.358 a 17.1,17.1 0 0 0 22.8,-4.659 l 12.168,7.44 a 25.076,25.076 0 0 0 13.127,3.687 25.312,25.312 0 0 0 14.7,-46.013 L 317.743,200.233 a 5.573,5.573 0 0 0 -7.77,1.342 z"
         fill="#34a853"
         class="color000000 svgShape"
         id="path3"
         style="display:inline;fill:#07733d;fill-opacity:1" /><path
         d="m 66.756,148.541 a 5.572,5.572 0 0 0 1.084,-7.809 61.479,61.479 0 1 1 110.554,-37.032 61.778,61.778 0 0 1 -0.705,9.246 39.052,39.052 0 1 0 27.852,11.106 5.5752094,5.5752094 0 1 0 -7.792,7.976 27.932,27.932 0 1 1 -22.914,-7.715 61.334,61.334 0 0 1 -12.7,21.043 5.5759162,5.5759162 0 1 0 8.2,7.558 72.559,72.559 0 0 0 15.613,-71.767 86.713,86.713 0 0 1 104.338,108.728 c -0.007,0.02 -0.006,0.041 -0.012,0.061 a 86.156,86.156 0 0 1 -9.856,21.678 5.576,5.576 0 0 0 1.609,7.624 l 86.908,58.08 a 5.5773768,5.5773768 0 0 0 6.2,-9.273 l -82.5,-55.137 a 97.317,97.317 0 0 0 8.876,-21.62 c 0.035,-0.125 0.038,-0.25 0.064,-0.375 A 97.885,97.885 0 0 0 181.605,70.742 72.616,72.616 0 1 0 58.946,147.456 a 5.575,5.575 0 0 0 7.81,1.085 z"
         fill="#34a853"
         class="color000000 svgShape"
         id="path4"
         style="display:inline;fill:#07733d;fill-opacity:1" /></g></g><metadata
     id="metadata2"><rdf:RDF><cc:Work
         rdf:about=""><dc:title>Ícone do ReservaLab</dc:title></cc:Work></rdf:RDF></metadata></svg>
